# xmcd
#
# Track frame offsets:
#	150
#	21482
#	44141
#	71808
#	90463
#	112358
#	132307
#	168906
#	211722
#
# Disc length: 3250 seconds
#
# Revision: 0
# Processed by: cddbd v1.5.1PL2 Copyright (c) Steve Scherf et al.
# Submitted via: audiograbber 1.83.01
#
DISCID=860cb009
DTITLE=Mark Knopfler and Emmylou Harris - Live in Verona/Italien  03.06.2006
DYEAR=2006
DGENRE=Country
TTITLE0=Right Now
TTITLE1=Red Staggerwing
TTITLE2=Michelangelo
TTITLE3=I dug up a diamond
TTITLE4=Born to run
TTITLE5=Red dirt girl
TTITLE6=Bonaparte
TTITLE7=Romeo and Juliet
TTITLE8=Sonny Liston
EXTD=
EXTT0=
EXTT1=
EXTT2=
EXTT3=
EXTT4=
EXTT5=
EXTT6=
EXTT7=
EXTT8=
PLAYORDER=
